<mxfile host="app.diagrams.net" modified="2020-08-13T20:53:23.020Z" agent="5.0 (Macintosh; Intel Mac OS X 10_15_6) AppleWebKit/537.36 (KHTML, like Gecko) Chrome/84.0.4147.105 Safari/537.36" etag="uEUu1Q06vgfT6ot5t6wN" version="13.6.2" type="github">
  <diagram id="ySlxF4ncAt-DPtO_EYwo" name="Page-1">
    <mxGraphModel dx="786" dy="514" grid="1" gridSize="10" guides="1" tooltips="1" connect="1" arrows="1" fold="1" page="1" pageScale="1" pageWidth="850" pageHeight="1100" math="0" shadow="0">
      <root>
        <mxCell id="0" />
        <mxCell id="1" parent="0" />
        <mxCell id="skakLKX9RZtpJJZrX6Nr-9" style="edgeStyle=orthogonalEdgeStyle;rounded=0;orthogonalLoop=1;jettySize=auto;html=1;exitX=0.5;exitY=1;exitDx=0;exitDy=0;entryX=0.5;entryY=0;entryDx=0;entryDy=0;" edge="1" parent="1" source="skakLKX9RZtpJJZrX6Nr-1">
          <mxGeometry relative="1" as="geometry">
            <mxPoint x="185" y="280" as="targetPoint" />
          </mxGeometry>
        </mxCell>
        <mxCell id="skakLKX9RZtpJJZrX6Nr-1" value="" style="whiteSpace=wrap;html=1;aspect=fixed;" vertex="1" parent="1">
          <mxGeometry x="120" y="110" width="130" height="130" as="geometry" />
        </mxCell>
        <mxCell id="skakLKX9RZtpJJZrX6Nr-8" style="edgeStyle=orthogonalEdgeStyle;rounded=0;orthogonalLoop=1;jettySize=auto;html=1;" edge="1" parent="1" source="skakLKX9RZtpJJZrX6Nr-2">
          <mxGeometry relative="1" as="geometry">
            <mxPoint x="250" y="110" as="targetPoint" />
          </mxGeometry>
        </mxCell>
        <mxCell id="skakLKX9RZtpJJZrX6Nr-2" value="Igroup Web 01" style="ellipse;whiteSpace=wrap;html=1;align=center;newEdgeStyle={&quot;edgeStyle&quot;:&quot;entityRelationEdgeStyle&quot;,&quot;startArrow&quot;:&quot;none&quot;,&quot;endArrow&quot;:&quot;none&quot;,&quot;segment&quot;:10,&quot;curved&quot;:1};treeFolding=1;treeMoving=1;" vertex="1" parent="1">
          <mxGeometry x="285" y="70" width="100" height="40" as="geometry" />
        </mxCell>
        <mxCell id="skakLKX9RZtpJJZrX6Nr-4" value="Igroup SQl 01" style="whiteSpace=wrap;html=1;shape=partialRectangle;top=0;left=0;bottom=1;right=0;points=[[0,1],[1,1]];fillColor=none;align=center;verticalAlign=bottom;routingCenterY=0.5;snapToPoint=1;recursiveResize=0;autosize=1;treeFolding=1;treeMoving=1;newEdgeStyle={&quot;edgeStyle&quot;:&quot;entityRelationEdgeStyle&quot;,&quot;startArrow&quot;:&quot;none&quot;,&quot;endArrow&quot;:&quot;none&quot;,&quot;segment&quot;:10,&quot;curved&quot;:1};" vertex="1" parent="1">
          <mxGeometry x="275" y="260" width="110" height="20" as="geometry" />
        </mxCell>
        <mxCell id="skakLKX9RZtpJJZrX6Nr-5" value="" style="edgeStyle=entityRelationEdgeStyle;startArrow=none;endArrow=none;segment=10;curved=1;exitX=0.983;exitY=0.363;exitDx=0;exitDy=0;exitPerimeter=0;" edge="1" target="skakLKX9RZtpJJZrX6Nr-4" parent="1" source="skakLKX9RZtpJJZrX6Nr-15">
          <mxGeometry relative="1" as="geometry">
            <mxPoint x="250" y="300" as="sourcePoint" />
          </mxGeometry>
        </mxCell>
        <mxCell id="skakLKX9RZtpJJZrX6Nr-11" value="" style="shape=cylinder2;whiteSpace=wrap;html=1;boundedLbl=1;backgroundOutline=1;size=15;" vertex="1" parent="1">
          <mxGeometry x="395" y="310" width="60" height="80" as="geometry" />
        </mxCell>
        <mxCell id="skakLKX9RZtpJJZrX6Nr-13" value="Azure production sql" style="whiteSpace=wrap;html=1;shape=partialRectangle;top=0;left=0;bottom=1;right=0;points=[[0,1],[1,1]];fillColor=none;align=center;verticalAlign=bottom;routingCenterY=0.5;snapToPoint=1;recursiveResize=0;autosize=1;treeFolding=1;treeMoving=1;newEdgeStyle={&quot;edgeStyle&quot;:&quot;entityRelationEdgeStyle&quot;,&quot;startArrow&quot;:&quot;none&quot;,&quot;endArrow&quot;:&quot;none&quot;,&quot;segment&quot;:10,&quot;curved&quot;:1};" vertex="1" parent="1">
          <mxGeometry x="470" y="280" width="140" height="20" as="geometry" />
        </mxCell>
        <mxCell id="skakLKX9RZtpJJZrX6Nr-14" value="" style="edgeStyle=entityRelationEdgeStyle;startArrow=none;endArrow=none;segment=10;curved=1;" edge="1" parent="1" target="skakLKX9RZtpJJZrX6Nr-13" source="skakLKX9RZtpJJZrX6Nr-11">
          <mxGeometry relative="1" as="geometry">
            <mxPoint x="455" y="300" as="sourcePoint" />
          </mxGeometry>
        </mxCell>
        <mxCell id="skakLKX9RZtpJJZrX6Nr-15" value="" style="shape=cylinder2;whiteSpace=wrap;html=1;boundedLbl=1;backgroundOutline=1;size=15;" vertex="1" parent="1">
          <mxGeometry x="155" y="280" width="60" height="80" as="geometry" />
        </mxCell>
        <mxCell id="skakLKX9RZtpJJZrX6Nr-16" value="" style="endArrow=none;dashed=1;html=1;dashPattern=1 3;strokeWidth=2;" edge="1" parent="1">
          <mxGeometry width="50" height="50" relative="1" as="geometry">
            <mxPoint x="210" y="360" as="sourcePoint" />
            <mxPoint x="400" y="360" as="targetPoint" />
          </mxGeometry>
        </mxCell>
        <mxCell id="skakLKX9RZtpJJZrX6Nr-17" value="Data Sync" style="text;html=1;strokeColor=none;fillColor=none;align=center;verticalAlign=middle;whiteSpace=wrap;rounded=0;" vertex="1" parent="1">
          <mxGeometry x="275" y="340" width="85" height="20" as="geometry" />
        </mxCell>
        <mxCell id="skakLKX9RZtpJJZrX6Nr-21" style="edgeStyle=orthogonalEdgeStyle;rounded=0;orthogonalLoop=1;jettySize=auto;html=1;exitX=0;exitY=1;exitDx=0;exitDy=0;" edge="1" parent="1" source="skakLKX9RZtpJJZrX6Nr-18" target="skakLKX9RZtpJJZrX6Nr-11">
          <mxGeometry relative="1" as="geometry" />
        </mxCell>
        <mxCell id="skakLKX9RZtpJJZrX6Nr-22" style="edgeStyle=orthogonalEdgeStyle;rounded=0;orthogonalLoop=1;jettySize=auto;html=1;exitX=0;exitY=0.75;exitDx=0;exitDy=0;entryX=1.017;entryY=0.338;entryDx=0;entryDy=0;entryPerimeter=0;" edge="1" parent="1" source="skakLKX9RZtpJJZrX6Nr-18" target="skakLKX9RZtpJJZrX6Nr-15">
          <mxGeometry relative="1" as="geometry">
            <mxPoint x="220" y="310" as="targetPoint" />
            <Array as="points">
              <mxPoint x="270" y="208" />
              <mxPoint x="270" y="307" />
            </Array>
          </mxGeometry>
        </mxCell>
        <mxCell id="skakLKX9RZtpJJZrX6Nr-18" value="" style="whiteSpace=wrap;html=1;aspect=fixed;" vertex="1" parent="1">
          <mxGeometry x="500" y="110" width="130" height="130" as="geometry" />
        </mxCell>
        <mxCell id="skakLKX9RZtpJJZrX6Nr-20" style="edgeStyle=orthogonalEdgeStyle;rounded=0;orthogonalLoop=1;jettySize=auto;html=1;entryX=1;entryY=0;entryDx=0;entryDy=0;" edge="1" parent="1" source="skakLKX9RZtpJJZrX6Nr-19" target="skakLKX9RZtpJJZrX6Nr-18">
          <mxGeometry relative="1" as="geometry" />
        </mxCell>
        <mxCell id="skakLKX9RZtpJJZrX6Nr-19" value="Azure App services" style="ellipse;whiteSpace=wrap;html=1;align=center;newEdgeStyle={&quot;edgeStyle&quot;:&quot;entityRelationEdgeStyle&quot;,&quot;startArrow&quot;:&quot;none&quot;,&quot;endArrow&quot;:&quot;none&quot;,&quot;segment&quot;:10,&quot;curved&quot;:1};treeFolding=1;treeMoving=1;" vertex="1" parent="1">
          <mxGeometry x="670" y="70" width="90" height="40" as="geometry" />
        </mxCell>
        <mxCell id="skakLKX9RZtpJJZrX6Nr-23" value="Migration connection" style="text;html=1;strokeColor=none;fillColor=none;align=center;verticalAlign=middle;whiteSpace=wrap;rounded=0;" vertex="1" parent="1">
          <mxGeometry x="320" y="170" width="130" height="40" as="geometry" />
        </mxCell>
        <mxCell id="skakLKX9RZtpJJZrX6Nr-26" value="" style="endArrow=none;dashed=1;html=1;dashPattern=1 3;strokeWidth=2;exitX=1.023;exitY=0.354;exitDx=0;exitDy=0;exitPerimeter=0;entryX=0;entryY=0.25;entryDx=0;entryDy=0;" edge="1" parent="1" source="skakLKX9RZtpJJZrX6Nr-1" target="skakLKX9RZtpJJZrX6Nr-18">
          <mxGeometry width="50" height="50" relative="1" as="geometry">
            <mxPoint x="380" y="270" as="sourcePoint" />
            <mxPoint x="430" y="220" as="targetPoint" />
            <Array as="points">
              <mxPoint x="340" y="150" />
            </Array>
          </mxGeometry>
        </mxCell>
        <mxCell id="skakLKX9RZtpJJZrX6Nr-27" value="File data sync" style="text;html=1;strokeColor=none;fillColor=none;align=center;verticalAlign=middle;whiteSpace=wrap;rounded=0;" vertex="1" parent="1">
          <mxGeometry x="340" y="130" width="100" height="20" as="geometry" />
        </mxCell>
      </root>
    </mxGraphModel>
  </diagram>
</mxfile>
